<?xml version="1.0" encoding="utf-8"?>
<!-- Generator: Adobe Illustrator 25.2.1, SVG Export Plug-In . SVG Version: 6.00 Build 0)  -->
<svg version="1.1" id="GAMEDEV.JS_WEEKLY_LOGO" xmlns="http://www.w3.org/2000/svg" xmlns:xlink="http://www.w3.org/1999/xlink"
	 x="0px" y="0px" viewBox="0 0 580 170" style="enable-background:new 0 0 580 170;" xml:space="preserve">
<g id="LOGO">
	<g id="ICON">
		<g>
			<path d="M96.2,91.9c-1.25,0.63-2.81,0.94-4.67,0.94c-1.74,0-3.32-0.3-4.75-0.91c-1.43-0.6-2.52-1.54-3.27-2.8
				c-0.75-1.26-1.13-2.77-1.13-4.52c0-1.67,0.38-3.24,1.13-4.7c0.76-1.46,1.82-2.58,3.19-3.36c1.37-0.78,2.88-1.17,4.55-1.17
				c1.45,0,2.78,0.31,3.98,0.93c1.2,0.62,2.11,1.45,2.71,2.49c0.61,1.04,0.91,2.15,0.91,3.34c0,1.02-0.24,2.01-0.71,2.97
				c-0.47,0.96-1.11,1.73-1.92,2.3c-0.61,0.44-1.1,0.65-1.48,0.65c-0.21,0-0.38-0.07-0.53-0.21c-0.15-0.14-0.22-0.31-0.22-0.5
				c0-0.11,0.11-0.66,0.32-1.66l1.53-7.19h-1.9l-0.36,1.66c-0.4-0.66-0.89-1.16-1.45-1.48c-0.56-0.33-1.15-0.49-1.76-0.49
				c-0.81,0-1.64,0.29-2.5,0.86c-0.86,0.57-1.58,1.43-2.15,2.57c-0.58,1.14-0.87,2.28-0.87,3.41c0,0.92,0.19,1.77,0.56,2.54
				c0.37,0.77,0.85,1.34,1.45,1.71c0.6,0.37,1.21,0.56,1.84,0.56c0.57,0,1.15-0.16,1.72-0.49c0.57-0.33,1.09-0.75,1.55-1.29
				c0.04,0.44,0.11,0.74,0.2,0.92c0.14,0.28,0.36,0.49,0.66,0.64c0.3,0.15,0.7,0.22,1.19,0.22c1.53,0,2.94-0.72,4.23-2.16
				c1.45-1.61,2.17-3.45,2.17-5.52c0-1.45-0.34-2.79-1.03-4.03c-0.81-1.44-1.91-2.52-3.31-3.24c-1.4-0.73-2.98-1.09-4.74-1.09
				c-2.27,0-4.2,0.52-5.79,1.54c-1.59,1.03-2.82,2.51-3.69,4.45c-0.71,1.58-1.06,3.24-1.06,4.98c0,1.56,0.3,3.02,0.89,4.37
				c0.48,1.06,1.18,2,2.12,2.82c0.94,0.82,2.07,1.43,3.4,1.84c1.33,0.41,2.78,0.61,4.36,0.61c1.71,0,3.17-0.23,4.38-0.68
				c1.21-0.45,2.26-1.07,3.14-1.85c0.88-0.78,1.5-1.54,1.86-2.29h-1.92C98.39,90.51,97.45,91.27,96.2,91.9z M92.59,85.04
				c-0.26,0.72-0.58,1.32-0.98,1.79c-0.4,0.47-0.82,0.83-1.26,1.07c-0.44,0.24-0.86,0.36-1.25,0.36c-0.6,0-1.12-0.27-1.58-0.81
				c-0.46-0.54-0.69-1.3-0.69-2.28c0-0.62,0.11-1.29,0.34-2.03c0.23-0.73,0.53-1.36,0.9-1.87c0.38-0.52,0.76-0.89,1.16-1.12
				c0.4-0.23,0.83-0.35,1.28-0.35c0.69,0,1.27,0.27,1.75,0.8c0.48,0.54,0.72,1.29,0.72,2.26C92.98,83.59,92.85,84.32,92.59,85.04z"
				/>
			<path d="M135.25,91.15h-27.64c-0.79,0-1.44,0.64-1.44,1.44c0,0.8,0.65,1.44,1.44,1.44h27.64c0.79,0,1.44-0.64,1.44-1.44
				C136.7,91.79,136.05,91.15,135.25,91.15z"/>
			<path d="M140.09,65.65H78.34c-3.27,0-5.91,2.65-5.92,5.92v26.86c0,3.27,2.65,5.92,5.92,5.92h61.74c3.27,0,5.92-2.65,5.92-5.92
				V71.57C146,68.3,143.36,65.65,140.09,65.65z M143.12,98.43c0,1.68-1.36,3.04-3.04,3.04H78.34c-1.67,0-3.03-1.36-3.03-3.04V71.57
				c0-1.68,1.36-3.04,3.03-3.04h61.74c1.67,0,3.03,1.36,3.04,3.04V98.43z"/>
			<path d="M108.74,22.13c-34.67,0-62.77,28.15-62.77,62.87c0,34.72,28.1,62.86,62.77,62.87c34.67,0,62.77-28.15,62.77-62.87
				C171.51,50.28,143.41,22.14,108.74,22.13z M108.74,144.98C75.66,144.92,48.91,118.13,48.85,85
				c0.06-33.13,26.82-59.92,59.89-59.98c33.07,0.06,59.83,26.85,59.89,59.98C168.57,118.13,141.81,144.92,108.74,144.98z"/>
			<path d="M135.25,75.79h-27.64c-0.79,0-1.44,0.65-1.44,1.44s0.65,1.44,1.44,1.44h27.64c0.79,0,1.44-0.65,1.44-1.44
				S136.05,75.79,135.25,75.79z"/>
			<path d="M135.25,83.4h-27.64c-0.79,0-1.44,0.65-1.44,1.44s0.65,1.44,1.44,1.44h27.64c0.79,0,1.44-0.65,1.44-1.44
				S136.05,83.4,135.25,83.4z"/>
		</g>
	</g>
	<g id="GAMEDEV.JS_WEEKLY">
		<polygon points="309.09,47.92 309.09,73.54 305.17,73.54 305.17,78.02 318.15,78.02 318.15,73.54 314.24,73.54 314.24,46.07 
			318.15,46.07 318.15,41.58 306.74,41.58 296.17,68.1 285.59,41.58 274.18,41.58 274.18,46.07 278.09,46.07 278.09,73.54 
			274.18,73.54 274.18,78.02 287.16,78.02 287.16,73.54 283.24,73.54 283.24,47.92 293.7,73.54 298.63,73.54 		"/>
		<path d="M259.24,78.02h11.86v-4.48h-3.02l-9.46-27.47h2.41v-4.49H246.1v4.49h2.35l-9.46,27.47h-2.97v4.48h11.86v-4.48h-3.75
			l2.41-6.95h13.99l2.4,6.95h-3.69V78.02z M248.05,62.1l5.48-15.86l5.48,15.86H248.05z"/>
		<polygon points="262.38,102.07 266.29,102.07 266.29,129.54 262.38,129.54 262.38,134.02 289,134.02 289,123.03 284.53,123.03 
			284.53,129.54 271.44,129.54 271.44,118.04 284.53,118.04 284.53,113.56 271.44,113.56 271.44,102.07 284.53,102.07 
			284.53,108.57 289,108.57 289,97.58 262.38,97.58 		"/>
		<polygon points="423.44,67.03 418.96,67.03 418.96,73.54 405.87,73.54 405.87,62.04 418.96,62.04 418.96,57.56 405.87,57.56 
			405.87,46.07 418.96,46.07 418.96,52.57 423.44,52.57 423.44,41.58 396.81,41.58 396.81,46.07 400.72,46.07 400.72,73.54 
			396.81,73.54 396.81,78.02 423.44,78.02 		"/>
		<polygon points="226.57,78.02 232.39,71.85 232.39,56.44 220.19,56.44 220.19,60.92 227.91,60.92 227.91,69.56 224.33,73.2 
			214.1,73.2 211.24,70.23 211.24,43.77 214.15,40.8 224.39,40.8 227.91,44.44 227.91,49.21 232.39,49.21 232.39,42.14 
			226.57,35.98 211.91,35.98 206.09,42.14 206.09,71.85 211.91,78.02 		"/>
		<polygon points="246.04,96.46 250.12,96.46 242.01,127.85 233.9,96.46 236.36,96.46 236.36,91.98 224.28,91.98 224.28,96.46 
			226.68,96.46 218.57,127.85 210.46,96.46 214.6,96.46 214.6,91.98 202.74,91.98 202.74,96.46 205.31,96.46 215.05,134.02 
			221.93,134.02 230.32,101.56 238.71,134.02 245.59,134.02 255.27,96.46 257.9,96.46 257.9,91.98 246.04,91.98 		"/>
		<path d="M388.98,71.85v-24.1l-5.82-6.17h-23.83v4.49h3.92v27.47h-3.92v4.48h23.83L388.98,71.85z M368.39,73.2V46.4h12.59
			l2.85,2.97v20.85l-2.91,2.97H368.39z"/>
		<polygon points="296.83,102.07 300.75,102.07 300.75,129.54 296.83,129.54 296.83,134.02 323.47,134.02 323.47,123.03 
			318.99,123.03 318.99,129.54 305.9,129.54 305.9,118.04 318.99,118.04 318.99,113.56 305.9,113.56 305.9,102.07 318.99,102.07 
			318.99,108.57 323.47,108.57 323.47,97.58 296.83,97.58 		"/>
		<rect x="464.67" y="71.29" width="5.6" height="6.73"/>
		<polygon points="528.39,57.67 516.75,57.67 514.01,54.87 514.01,49.38 516.92,46.4 525.48,46.4 528.84,49.88 528.84,54.81 
			533.48,54.81 533.48,47.75 527.66,41.58 514.68,41.58 508.86,47.75 508.86,56.49 514.57,62.49 526.2,62.49 528.89,65.24 
			528.89,70.23 526.04,73.2 516.36,73.2 512.95,69.72 512.95,64.79 508.3,64.79 508.3,71.85 514.12,78.02 528.22,78.02 
			534.04,71.85 534.04,63.61 		"/>
		<polygon points="465.23,41.58 453.37,41.58 453.37,46.07 457,46.07 447.1,73.59 437.25,46.07 440.89,46.07 440.89,41.58 
			429.03,41.58 429.03,46.07 432.11,46.07 443.58,78.02 450.68,78.02 462.15,46.07 465.23,46.07 		"/>
		<polygon points="490.85,46.07 494.76,46.07 494.76,70.23 491.85,73.2 485.53,73.2 482.01,69.56 482.01,61.99 477.53,61.99 
			477.53,71.85 483.35,78.02 494.09,78.02 499.91,71.85 499.91,46.07 503.27,46.07 503.27,41.58 490.85,41.58 		"/>
		<polygon points="349.76,115.41 359.33,102.07 362.57,102.07 362.57,97.58 350.71,97.58 350.71,102.07 353.56,102.07 
			345.28,113.56 340.36,113.56 340.36,102.07 344.28,102.07 344.28,97.58 331.3,97.58 331.3,102.07 335.21,102.07 335.21,129.54 
			331.3,129.54 331.3,134.02 344.28,134.02 344.28,129.54 340.36,129.54 340.36,118.04 345.9,118.04 354.12,129.54 351.27,129.54 
			351.27,134.02 363.13,134.02 363.13,129.54 359.88,129.54 		"/>
		<polygon points="412.98,102.07 416.33,102.07 408.95,117.6 401.62,102.07 404.97,102.07 404.97,97.58 393.11,97.58 393.11,102.07 
			396.69,102.07 406.43,122.58 406.43,129.54 401.4,129.54 401.4,134.02 416.61,134.02 416.61,129.54 411.58,129.54 411.58,122.47 
			421.25,102.07 424.83,102.07 424.83,97.58 412.98,97.58 		"/>
		<polygon points="351.5,67.03 347.02,67.03 347.02,73.54 333.93,73.54 333.93,62.04 347.02,62.04 347.02,57.56 333.93,57.56 
			333.93,46.07 347.02,46.07 347.02,52.57 351.5,52.57 351.5,41.58 324.87,41.58 324.87,46.07 328.78,46.07 328.78,73.54 
			324.87,73.54 324.87,78.02 351.5,78.02 		"/>
		<polygon points="389.98,129.54 377.79,129.54 377.79,102.07 382.26,102.07 382.26,97.58 368.72,97.58 368.72,102.07 
			372.64,102.07 372.64,129.54 368.72,129.54 368.72,134.02 394.23,134.02 394.23,123.03 389.98,123.03 		"/>
	</g>
</g>
</svg>
